HIERARCHY
ROOT Hips
{
	OFFSET 49.562000 -13.148416 94.074501
	CHANNELS 6 Xposition Yposition Zposition Xrotation Yrotation Zrotation
	JOINT spine
	{
		OFFSET 0.000000 -0.448574 7.800591
		CHANNELS 3 Xrotation Yrotation Zrotation
		JOINT spine1
		{
			OFFSET 0.000000 -0.000002 10.136398
			CHANNELS 3 Xrotation Yrotation Zrotation
			JOINT spine2
			{
				OFFSET 0.000000 -0.000002 9.712509
				CHANNELS 3 Xrotation Yrotation Zrotation
				JOINT Neck
				{
					OFFSET 0.000000 -1.188873 24.936096
					CHANNELS 3 Xrotation Yrotation Zrotation
					JOINT Head
					{
						OFFSET 0.000000 -0.000001 7.533844
						CHANNELS 3 Xrotation Yrotation Zrotation
						End Site
						{
							OFFSET 0.000000 6.014017 18.236099
						}
					}
				}
				JOINT RightShoulder
				{
					OFFSET -4.089649 0.569455 10.488800
					CHANNELS 3 Xrotation Yrotation Zrotation
					JOINT RightArm
					{
						OFFSET 0.000000 -0.000002 13.757004
						CHANNELS 3 Xrotation Yrotation Zrotation
						JOINT RightArmRoll
						{
							OFFSET 0.000000 -0.000001 6.944778
							CHANNELS 3 Xrotation Yrotation Zrotation
							JOINT RightForeArm
							{
								OFFSET 0.000000 -0.000004 20.227692
								CHANNELS 3 Xrotation Yrotation Zrotation
								JOINT RightForeArmRoll
								{
									OFFSET 0.000000 -0.000001 7.793121
									CHANNELS 3 Xrotation Yrotation Zrotation
									JOINT RightHand
									{
										OFFSET 0.000000 -0.000003 15.639099
										CHANNELS 3 Xrotation Yrotation Zrotation
										End Site
										{
											OFFSET 0.000000 0.000000 0.100006
										}
									}
								}
							}
						}
					}
				}
				JOINT LeftShoulder
				{
					OFFSET 4.089649 0.569455 10.488800
					CHANNELS 3 Xrotation Yrotation Zrotation
					JOINT LeftArm
					{
						OFFSET 0.000000 -0.000002 13.757004
						CHANNELS 3 Xrotation Yrotation Zrotation
						JOINT LeftArmRoll
						{
							OFFSET 0.000000 -0.000001 6.944778
							CHANNELS 3 Xrotation Yrotation Zrotation
							JOINT LeftForeArm
							{
								OFFSET 0.000000 -0.000004 20.227692
								CHANNELS 3 Xrotation Yrotation Zrotation
								JOINT LeftForeArmRoll
								{
									OFFSET 0.000000 -0.000001 7.793121
									CHANNELS 3 Xrotation Yrotation Zrotation
									JOINT LeftHand
									{
										OFFSET 0.000000 -0.000003 15.639099
										CHANNELS 3 Xrotation Yrotation Zrotation
										End Site
										{
											OFFSET 0.000000 0.000000 0.100006
										}
									}
								}
							}
						}
					}
				}
			}
		}
	}
	JOINT RightUpLeg
	{
		OFFSET -6.914158 1.063581 -1.267883
		CHANNELS 3 Xrotation Yrotation Zrotation
		JOINT RightUpLegRoll
		{
			OFFSET 0.000000 -0.000003 18.337799
			CHANNELS 3 Xrotation Yrotation Zrotation
			JOINT RightLeg
			{
				OFFSET 0.000000 0.000004 -22.708504
				CHANNELS 3 Xrotation Yrotation Zrotation
				JOINT RightLegRoll
				{
					OFFSET 0.000000 -0.000004 22.782799
					CHANNELS 3 Xrotation Yrotation Zrotation
					JOINT RightFoot
					{
						OFFSET 0.000000 -0.000003 18.962898
						CHANNELS 3 Xrotation Yrotation Zrotation
						JOINT RightToeBase
						{
							OFFSET 0.000000 -0.000003 15.852005
							CHANNELS 3 Xrotation Yrotation Zrotation
							End Site
							{
								OFFSET 0.006718 0.884891 7.677017
							}
						}
					}
				}
			}
		}
	}
	JOINT LeftUpLeg
	{
		OFFSET 6.914158 1.063581 -1.267883
		CHANNELS 3 Xrotation Yrotation Zrotation
		JOINT LeftUpLegRoll
		{
			OFFSET 0.000000 -0.000003 18.337898
			CHANNELS 3 Xrotation Yrotation Zrotation
			JOINT LeftLeg
			{
				OFFSET 0.000000 -0.000004 22.708405
				CHANNELS 3 Xrotation Yrotation Zrotation
				JOINT LeftLegRoll
				{
					OFFSET 0.000000 -0.000004 22.993393
					CHANNELS 3 Xrotation Yrotation Zrotation
					JOINT LeftFoot
					{
						OFFSET 0.000000 -0.000003 18.752197
						CHANNELS 3 Xrotation Yrotation Zrotation
						JOINT LeftToeBase
						{
							OFFSET 0.000000 -0.000003 15.852005
							CHANNELS 3 Xrotation Yrotation Zrotation
							End Site
							{
								OFFSET -0.030113 0.884892 7.677017
							}
						}
					}
				}
			}
		}
	}
}
MOTION
Frames: 12
Frame Time: 0.041667
50.051998 -13.442816 94.174400 -7.215427 0.461908 2.324918 -0.767972 0.288308 0.139014 2.466437 0.583633 0.293329 4.111525 0.587193 0.286409 17.535455 -0.774152 -1.997523 -15.357047 -4.194735 -2.106169 -37.483522 -83.303405 -41.564942 13.183559 -85.759432 32.118172 0.000001 0.000004 -0.000002 17.640184 -10.543965 0.464131 -0.000008 -0.000001 -3.006559 -5.000254 -7.998783 0.000169 2.978475 67.729344 -2.252535 15.952658 104.954510 -30.741923 0.000001 -0.000001 0.000001 16.369576 6.080842 0.384439 0.000004 -0.000007 3.000000 -5.000216 7.999252 -0.000089 4.510585 -179.256307 0.283842 -179.999991 0.000005 -1.137003 170.904037 -1.874145 -0.617993 -0.000003 0.000000 0.144697 70.793039 6.657408 2.638266 25.456964 -7.355618 0.000001 2.551625 179.741250 5.920511 -0.000005 -0.000004 -1.508450 -13.201553 5.201895 0.794912 -0.000003 0.000002 -0.280817 74.561009 -7.786860 0.994579 25.456960 7.355617 -0.000002 
50.056702 -13.441316 94.175598 -7.219798 0.462036 2.325810 -0.766735 0.289449 0.138980 2.469238 0.585186 0.292077 4.114337 0.588725 0.285130 17.534791 -0.782817 -2.002436 -15.365270 -4.199701 -2.111699 -37.458352 -83.297750 -41.539479 12.711382 -85.791821 31.727171 0.000000 0.000004 0.000001 17.693400 -10.494649 0.456246 -0.000007 -0.000002 -3.006560 -5.000249 -7.998783 0.000169 2.983508 67.729460 -2.258162 15.983823 104.959838 -30.773820 0.000000 -0.000001 0.000001 16.347337 6.084008 0.384822 0.000004 -0.000007 3.000000 -5.000217 7.999251 -0.000090 4.529447 -179.256334 0.285009 -179.999991 0.000005 -1.137003 170.924323 -1.874251 -0.618340 -0.000004 0.000000 0.144374 70.787042 6.657236 2.639195 25.456959 -7.355617 0.000001 2.541347 179.738258 5.914694 -0.000005 -0.000004 -1.508450 -13.214046 5.208475 0.794879 -0.000002 0.000001 -0.280834 74.560913 -7.786904 0.994466 25.456955 7.355615 -0.000001 
50.043598 -13.480117 94.183403 -7.224390 0.462062 2.326731 -0.765438 0.290598 0.138944 2.472190 0.586717 0.290784 4.117278 0.590232 0.283808 17.534129 -0.791222 -2.007410 -15.374010 -4.205033 -2.117318 -37.431148 -83.291643 -41.511943 12.214608 -85.824913 31.311220 0.000001 0.000003 0.000000 17.748660 -10.445428 0.448379 -0.000006 -0.000002 -3.006559 -5.000251 -7.998783 0.000168 2.988527 67.729870 -2.263713 16.017147 104.965323 -30.807500 0.000001 -0.000002 0.000003 16.325318 6.087731 0.385150 0.000003 -0.000008 3.000001 -5.000219 7.999251 -0.000091 4.549189 -179.256348 0.286461 -179.999991 0.000005 -1.137003 170.945537 -1.874362 -0.618643 -0.000004 0.000000 0.144055 70.780847 6.657125 2.639847 25.456962 -7.355617 0.000002 2.530236 179.734242 5.908558 -0.000005 -0.000004 -1.508451 -13.227555 5.215503 0.794855 -0.000003 0.000001 -0.280858 74.560722 -7.786966 0.994245 25.456957 7.355616 -0.000002 
50.048599 -13.470215 94.182503 -7.229126 0.462017 2.327674 -0.764097 0.291752 0.138905 2.475230 0.588230 0.289463 4.120331 0.591722 0.282458 17.533463 -0.799444 -2.012413 -15.383251 -4.210626 -2.123014 -37.401679 -83.285107 -41.482133 11.698043 -85.858469 30.875290 0.000000 0.000004 -0.000001 17.805446 -10.396324 0.440531 -0.000006 -0.000003 -3.006561 -5.000250 -7.998784 0.000172 2.993543 67.730669 -2.269221 16.053147 104.969974 -30.843635 0.000001 -0.000001 0.000002 16.303417 6.091867 0.385428 0.000004 -0.000007 3.000003 -5.000216 7.999251 -0.000090 4.569553 -179.255378 0.288193 -179.999991 0.000005 -1.137003 170.967408 -1.874476 -0.618926 -0.000004 0.000000 0.143740 70.774543 6.656978 2.640599 25.456962 -7.355617 0.000001 2.518540 179.730254 5.902214 -0.000004 -0.000004 -1.508450 -13.241673 5.222847 0.794831 -0.000002 0.000001 -0.280888 74.560544 -7.787053 0.994121 25.456959 7.355616 -0.000002 
50.054699 -13.454914 94.179001 -7.233962 0.461931 2.328633 -0.762735 0.292909 0.138864 2.478341 0.589734 0.288124 4.123431 0.593202 0.281091 17.532797 -0.807563 -2.017438 -15.392694 -4.216367 -2.128748 -37.371916 -83.278488 -41.451995 11.166677 -85.892197 30.424360 0.000001 0.000002 -0.000002 17.862951 -10.347299 0.432610 -0.000009 -0.000002 -3.006562 -5.000254 -7.998783 0.000169 2.998522 67.731591 -2.274670 16.089959 104.974694 -30.880347 0.000001 -0.000001 0.000001 16.281614 6.096229 0.385692 0.000003 -0.000007 2.999999 -5.000217 7.999250 -0.000090 4.590256 -179.254408 0.290040 -179.999991 0.000005 -1.137003 170.989619 -1.874591 -0.618199 -0.000004 0.000000 0.143427 70.768034 6.656893 2.641175 25.456962 -7.355618 0.000002 2.506499 179.726265 5.895769 -0.000005 -0.000004 -1.508450 -13.256096 5.230368 0.794805 -0.000002 0.000001 -0.280922 74.560346 -7.787116 0.993900 25.456959 7.355616 -0.000001 
50.057098 -13.464016 94.179298 -7.238816 0.461835 2.329591 -0.761367 0.294066 0.138824 2.481453 0.591235 0.286780 4.126552 0.594680 0.279720 17.532133 -0.815653 -2.022473 -15.402136 -4.222146 -2.134490 -37.341829 -83.271768 -41.421525 10.625595 -85.925774 29.963702 0.000001 0.000003 -0.000002 17.920745 -10.298272 0.424612 -0.000006 -0.000002 -3.006560 -5.000249 -7.998784 0.000170 3.003538 67.732595 -2.280149 16.127014 104.979441 -30.917415 0.000001 -0.000002 0.000000 16.259819 6.100649 0.385940 0.000003 -0.000008 3.000001 -5.000217 7.999251 -0.000091 4.611034 -179.254422 0.291835 -179.999991 0.000005 -1.137003 171.011927 -1.875705 -0.618624 -0.000004 0.000000 0.143114 70.761525 6.656773 2.641843 25.456964 -7.355619 0.000002 2.494375 179.723246 5.889335 -0.000005 -0.000004 -1.508450 -13.270623 5.237925 0.794779 -0.000003 0.000001 -0.280956 74.560148 -7.787176 0.993675 25.456957 7.355617 -0.000002 
50.045101 -13.490614 94.180191 -7.243630 0.461759 2.330541 -0.760005 0.295222 0.138784 2.484543 0.592740 0.285446 4.129643 0.596161 0.278356 17.531572 -0.823797 -2.027500 -15.411477 -4.227841 -2.140214 -37.312152 -83.265135 -41.391489 10.080027 -85.958825 29.498518 0.000001 0.000003 -0.000001 17.978135 -10.249292 0.416499 -0.000007 -0.000002 -3.006559 -5.000252 -7.998784 0.000168 3.008516 67.733504 -2.285604 16.162541 104.985110 -30.952812 0.000000 -0.000001 0.000002 16.238018 6.104954 0.386215 0.000004 -0.000008 3.000002 -5.000217 7.999252 -0.000090 4.631660 -179.253452 0.293655 -179.999991 0.000005 -1.137003 171.034043 -1.875819 -0.618897 -0.000003 0.000000 0.142801 70.755125 6.656656 2.642505 25.456962 -7.355618 0.000002 2.482427 179.719243 5.882909 -0.000005 -0.000004 -1.508450 -13.285051 5.245405 0.794769 -0.000002 0.000001 -0.280988 74.559971 -7.787262 0.993451 25.456959 7.355616 -0.000002 
50.046501 -13.487017 94.182693 -7.248327 0.461734 2.331475 -0.758680 0.296374 0.138746 2.487562 0.594259 0.284131 4.132665 0.597655 0.277014 17.530908 -0.832071 -2.032497 -15.420518 -4.233356 -2.145893 -37.283902 -83.258770 -41.362891 9.536269 -85.991276 29.035418 0.000001 0.000002 0.000001 18.034396 -10.200295 0.408216 -0.000009 -0.000002 -3.006559 -5.000252 -7.998783 0.000168 3.013549 67.734214 -2.291140 16.197944 104.989754 -30.988473 0.000000 -0.000001 -0.000000 16.216010 6.108975 0.386528 0.000003 -0.000007 3.000003 -5.000216 7.999250 -0.000091 4.651844 -179.252468 0.295333 -179.999991 0.000005 -1.137003 171.055736 -1.875931 -0.619198 -0.000003 0.000000 0.142485 70.748725 6.656567 2.643173 25.456965 -7.355618 0.000002 2.470898 179.715241 5.876643 -0.000004 -0.000004 -1.508450 -13.298968 5.252654 0.794757 -0.000002 0.000001 -0.281017 74.559772 -7.787327 0.993230 25.456959 7.355617 -0.000002 
50.056099 -13.459813 94.183998 -7.252846 0.461789 2.332390 -0.757399 0.297521 0.138709 2.490465 0.595795 0.282850 4.135566 0.599169 0.275705 17.530148 -0.840553 -2.037450 -15.429148 -4.238573 -2.151500 -37.257343 -83.252752 -41.336001 9.000081 -86.022695 28.580114 0.000001 0.000004 0.000000 18.089023 -10.151218 0.399742 -0.000006 -0.000001 -3.006558 -5.000250 -7.998784 0.000168 3.018555 67.734522 -2.296698 16.230509 104.995225 -31.021500 0.000001 -0.000002 -0.000000 16.193981 6.112535 0.386883 0.000004 -0.000007 3.000002 -5.000218 7.999251 -0.000090 4.671315 -179.252495 0.296701 -179.999991 0.000005 -1.137003 171.076663 -1.876039 -0.618513 -0.000003 0.000000 0.142165 70.742626 6.656417 2.644013 25.456964 -7.355618 0.000002 2.460031 179.711266 5.870596 -0.000004 -0.000004 -1.508450 -13.312075 5.259555 0.794744 -0.000001 0.000001 -0.281039 74.559677 -7.787370 0.993118 25.456955 7.355618 -0.000002 
50.053799 -13.470914 94.181503 -7.257127 0.461957 2.333266 -0.756188 0.298660 0.138676 2.493205 0.597357 0.281613 4.138308 0.600709 0.274442 17.529488 -0.849321 -2.042351 -15.437168 -4.243376 -2.157007 -37.233950 -83.247329 -41.312348 8.477988 -86.052904 28.139228 0.000001 0.000003 -0.000002 18.141399 -10.102005 0.391029 -0.000008 -0.000002 -3.006561 -5.000252 -7.998783 0.000169 3.023577 67.734323 -2.302336 16.260520 105.000519 -31.052475 0.000001 -0.000001 0.000003 16.171735 6.115470 0.387315 0.000004 -0.000008 3.000001 -5.000216 7.999250 -0.000090 4.689836 -179.252509 0.297756 -179.999991 0.000005 -1.137003 171.096594 -1.876141 -0.618858 -0.000004 0.000000 0.141839 70.736840 6.656237 2.644728 25.456960 -7.355618 0.000002 2.450092 179.708260 5.864908 -0.000005 -0.000004 -1.508450 -13.324370 5.265968 0.794754 -0.000002 0.000001 -0.281052 74.559588 -7.787414 0.993005 25.456960 7.355615 -0.000001 
50.043598 -13.491615 94.174202 -7.261099 0.462265 2.334088 -0.755064 0.299788 0.138647 2.495747 0.598952 0.280436 4.140847 0.602283 0.273236 17.528632 -0.858456 -2.047171 -15.444383 -4.247665 -2.162382 -37.214030 -83.242596 -41.292195 7.976806 -86.081707 27.719752 0.000001 0.000004 -0.000001 18.190915 -10.052684 0.382076 -0.000009 -0.000002 -3.006561 -5.000251 -7.998784 0.000169 3.028639 67.733627 -2.308099 16.287380 105.005593 -31.080803 0.000001 -0.000001 0.000001 16.149260 6.117590 0.387836 0.000003 -0.000008 3.000002 -5.000218 7.999251 -0.000091 4.707126 -179.252523 0.298409 -179.999991 0.000005 -1.137003 171.115227 -1.876236 -0.619245 -0.000003 0.000000 0.141507 70.731451 6.655962 2.645804 25.456962 -7.355619 0.000002 2.441323 179.704258 5.859583 -0.000005 -0.000004 -1.508450 -13.335344 5.271756 0.794765 -0.000002 0.000001 -0.281054 74.559574 -7.787387 0.992907 25.456957 7.355617 -0.000001 
50.045895 -13.488514 94.178703 -7.264701 0.462748 2.334869 -0.754042 0.300904 0.138622 2.498048 0.600587 0.279327 4.143150 0.603899 0.272102 17.527777 -0.868032 -2.051911 -15.450571 -4.251318 -2.167593 -37.197931 -83.238662 -41.275905 7.503530 -86.108878 27.328680 0.000000 0.000004 -0.000001 18.236860 -10.003206 0.372836 -0.000008 -0.000001 -3.006559 -5.000251 -7.998783 0.000169 3.033706 67.732138 -2.313963 16.308316 105.012301 -31.103869 0.000001 -0.000001 0.000001 16.126454 6.118752 0.388462 0.000004 -0.000007 3.000003 -5.000218 7.999252 -0.000091 4.722936 -179.253547 0.298495 -179.999991 0.000005 -1.137003 171.132329 -1.875325 -0.619526 -0.000004 0.000000 0.141167 70.726479 6.655694 2.646757 25.456964 -7.355617 0.000001 2.433980 179.701266 5.854793 -0.000005 -0.000004 -1.508450 -13.344694 5.276790 0.794774 -0.000002 0.000001 -0.281043 74.559670 -7.787345 0.992920 25.456957 7.355617 -0.000002 
